<svg width="1000" height="803" viewBox="0 0 1000 803" fill="none" xmlns="http://www.w3.org/2000/svg">
<path d="M873.824 0.0423952C915.876 -0.0141317 957.929 -0.0141317 1000 0.0423952C999.981 10.0665 999.981 20.0906 1000 30.1147C983.032 30.1524 966.102 30.1712 949.153 30.2089C949.153 277.024 949.153 523.821 949.153 770.636C966.102 770.655 983.051 770.674 1000 770.712C999.962 781.358 999.962 792.022 1000 802.687C957.891 802.744 915.782 802.725 873.673 802.687C873.88 792.211 874.106 781.753 874.351 771.296C891.733 770.806 909.134 770.655 926.554 770.561C926.272 523.972 927.138 277.382 926.102 30.793C908.682 30.322 891.244 30.1713 873.824 30.0582C873.824 20.0529 873.805 10.0477 873.824 0.0423952Z" fill="black"/>
<path d="M0.0235389 88.5834C162.584 88.5834 325.164 88.5834 487.744 88.5834C487.819 126.89 487.8 165.196 487.744 203.503C371.623 203.559 255.503 203.484 139.383 203.54C139.345 246.237 139.326 288.934 139.383 331.649C198.987 332.007 258.61 330.971 318.234 332.101C362.038 334.098 407.461 340.071 446.294 361.91C471.793 375.928 494.354 396.429 508.252 422.243C526.519 453.276 530.229 490.358 530.606 525.668C529.514 565.143 517.913 605.296 492.753 636.272C473.544 661.125 447.141 679.892 418.196 691.725C377.292 709.154 332.301 714.732 288.14 714.261C192.095 714.016 96.0497 714.223 0.00470967 714.148C0.00470967 505.62 -0.0141258 297.111 0.0235389 88.5834ZM139.364 439.05C139.345 494.955 139.345 550.841 139.383 606.728C187.104 606.483 234.825 607.236 282.528 606.615C312.64 606.106 344.787 599.963 367.725 578.973C380.701 564.559 388.704 545.264 388.177 525.725C389.232 503.755 383.808 479.278 366.557 464.261C345.465 446.097 316.614 441.16 289.74 439.597C239.627 438.183 189.496 439.427 139.364 439.05Z" fill="black"/>
<path d="M566.875 88.5849C654.125 88.5661 741.375 88.5661 828.625 88.5849C828.625 297.113 828.644 505.622 828.606 714.149C781.544 714.187 734.464 714.149 687.402 714.149C687.345 544.55 687.421 374.988 687.364 205.407C647.195 205.483 607.044 205.332 566.875 205.407C566.8 166.46 566.819 127.532 566.875 88.5849Z" fill="black"/>
</svg>
