<svg width="1200" height="1334" viewBox="0 0 1200 1334" fill="none" xmlns="http://www.w3.org/2000/svg">
<path d="M973.824 100.317C1015.88 100.261 1057.93 100.261 1100 100.317C1099.98 110.341 1099.98 120.365 1100 130.389C1083.03 130.427 1066.1 130.446 1049.15 130.484C1049.15 377.299 1049.15 624.096 1049.15 870.911C1066.1 870.93 1083.05 870.949 1100 870.986C1099.96 881.632 1099.96 892.297 1100 902.962C1057.89 903.018 1015.78 902.999 973.673 902.962C973.88 892.485 974.106 882.028 974.351 871.57C991.733 871.08 1009.13 870.93 1026.55 870.836C1026.27 624.246 1027.14 377.657 1026.1 131.068C1008.68 130.597 991.244 130.446 973.824 130.333C973.824 120.328 973.805 110.322 973.824 100.317Z" fill="black"/>
<path d="M100.024 188.858C262.584 188.858 425.164 188.858 587.744 188.858C587.819 227.164 587.8 265.471 587.744 303.777C471.623 303.834 355.503 303.758 239.383 303.815C239.345 346.512 239.326 389.208 239.383 431.924C298.987 432.282 358.61 431.245 418.234 432.376C462.038 434.373 507.461 440.346 546.294 462.184C571.793 476.203 594.354 496.703 608.252 522.517C626.519 553.551 630.229 590.632 630.606 625.943C629.514 665.417 617.913 705.57 592.753 736.547C573.544 761.4 547.141 780.167 518.196 792C477.292 809.429 432.301 815.006 388.14 814.535C292.095 814.29 196.05 814.498 100.005 814.422C100.005 605.895 99.9859 397.386 100.024 188.858ZM239.364 539.325C239.345 595.23 239.345 651.116 239.383 707.002C287.104 706.757 334.825 707.511 382.528 706.889C412.64 706.381 444.787 700.238 467.725 679.248C480.701 664.833 488.704 645.539 488.177 625.999C489.232 604.029 483.808 579.553 466.557 564.536C445.465 546.372 416.614 541.435 389.74 539.871C339.627 538.458 289.496 539.702 239.364 539.325Z" fill="black"/>
<path d="M666.875 188.86C754.125 188.841 841.375 188.841 928.625 188.86C928.625 397.387 928.644 605.896 928.607 814.424C881.545 814.462 834.464 814.424 787.402 814.424C787.346 644.825 787.421 475.263 787.364 305.682C747.195 305.757 707.045 305.607 666.875 305.682C666.8 266.735 666.819 227.807 666.875 188.86Z" fill="black"/>
<path d="M112.926 1231.49V1100.87H218.351V1124.94H142.967V1151.81H179.166C194.964 1151.81 206.969 1155.11 215.179 1161.7C223.513 1168.29 227.68 1177.87 227.68 1190.44C227.68 1203.37 223.078 1213.45 213.872 1220.66C204.667 1227.88 191.668 1231.49 174.875 1231.49H112.926ZM142.967 1209.1H173.195C180.908 1209.1 186.817 1207.6 190.922 1204.62C195.027 1201.51 197.079 1197.03 197.079 1191.18C197.079 1179.74 189.118 1174.02 173.195 1174.02H142.967V1209.1Z" fill="black"/>
<path d="M251.617 1231.49V1100.87H281.658V1152.18H315.431V1178.31H281.658V1231.49H251.617ZM366.931 1233.73C356.979 1233.73 347.774 1232.05 339.315 1228.69C330.981 1225.33 323.704 1220.66 317.484 1214.69C311.264 1208.6 306.413 1201.44 302.93 1193.23C299.571 1184.9 297.892 1175.88 297.892 1166.18C297.892 1156.35 299.571 1147.33 302.93 1139.12C306.413 1130.91 311.264 1123.82 317.484 1117.85C323.704 1111.76 330.981 1107.03 339.315 1103.67C347.774 1100.31 356.979 1098.63 366.931 1098.63C376.758 1098.63 385.901 1100.31 394.36 1103.67C402.819 1107.03 410.096 1111.76 416.191 1117.85C422.411 1123.82 427.263 1130.97 430.746 1139.31C434.229 1147.52 435.97 1156.48 435.97 1166.18C435.97 1175.88 434.229 1184.9 430.746 1193.23C427.263 1201.44 422.411 1208.6 416.191 1214.69C410.096 1220.66 402.819 1225.33 394.36 1228.69C385.901 1232.05 376.758 1233.73 366.931 1233.73ZM366.931 1207.98C372.404 1207.98 377.442 1206.98 382.045 1204.99C386.648 1203 390.69 1200.2 394.174 1196.59C397.657 1192.86 400.393 1188.45 402.384 1183.35C404.374 1178.25 405.369 1172.52 405.369 1166.18C405.369 1159.83 404.374 1154.11 402.384 1149.01C400.393 1143.91 397.657 1139.56 394.174 1135.95C390.69 1132.22 386.648 1129.36 382.045 1127.37C377.442 1125.38 372.404 1124.38 366.931 1124.38C361.582 1124.38 356.544 1125.38 351.817 1127.37C347.214 1129.36 343.172 1132.22 339.688 1135.95C336.205 1139.56 333.469 1143.91 331.478 1149.01C329.488 1154.11 328.493 1159.83 328.493 1166.18C328.493 1172.52 329.488 1178.25 331.478 1183.35C333.469 1188.45 336.205 1192.86 339.688 1196.59C343.172 1200.2 347.214 1203 351.817 1204.99C356.544 1206.98 361.582 1207.98 366.931 1207.98Z" fill="black"/>
<path d="M460.462 1231.49V1100.87H517C528.693 1100.87 538.769 1102.8 547.228 1106.66C555.687 1110.39 562.217 1115.8 566.82 1122.89C571.423 1129.98 573.724 1138.44 573.724 1148.27C573.724 1157.97 571.423 1166.37 566.82 1173.46C562.217 1180.55 555.687 1186.02 547.228 1189.88C538.769 1193.61 528.693 1195.47 517 1195.47H477.255L490.69 1181.85V1231.49H460.462ZM490.69 1185.21L477.255 1170.84H515.32C524.65 1170.84 531.616 1168.85 536.219 1164.87C540.821 1160.89 543.123 1155.36 543.123 1148.27C543.123 1141.05 540.821 1135.45 536.219 1131.47C531.616 1127.49 524.65 1125.5 515.32 1125.5H477.255L490.69 1111.13V1185.21Z" fill="black"/>
<path d="M658.928 1233.73C648.603 1233.73 639.025 1232.05 630.193 1228.69C621.485 1225.33 613.897 1220.6 607.429 1214.51C601.085 1208.41 596.109 1201.26 592.501 1193.05C589.018 1184.84 587.277 1175.88 587.277 1166.18C587.277 1156.48 589.018 1147.52 592.501 1139.31C596.109 1131.1 601.147 1123.95 607.615 1117.85C614.084 1111.76 621.672 1107.03 630.38 1103.67C639.087 1100.31 648.541 1098.63 658.742 1098.63C669.066 1098.63 678.521 1100.31 687.104 1103.67C695.811 1107.03 703.337 1111.76 709.682 1117.85C716.15 1123.95 721.188 1131.1 724.796 1139.31C728.403 1147.4 730.207 1156.35 730.207 1166.18C730.207 1175.88 728.403 1184.9 724.796 1193.23C721.188 1201.44 716.15 1208.6 709.682 1214.69C703.337 1220.66 695.811 1225.33 687.104 1228.69C678.521 1232.05 669.129 1233.73 658.928 1233.73ZM658.742 1207.98C664.588 1207.98 669.937 1206.98 674.789 1204.99C679.765 1203 684.118 1200.14 687.85 1196.41C691.582 1192.67 694.443 1188.26 696.433 1183.16C698.548 1178.06 699.606 1172.4 699.606 1166.18C699.606 1159.96 698.548 1154.3 696.433 1149.2C694.443 1144.1 691.582 1139.68 687.85 1135.95C684.243 1132.22 679.951 1129.36 674.975 1127.37C669.999 1125.38 664.588 1124.38 658.742 1124.38C652.895 1124.38 647.484 1125.38 642.508 1127.37C637.657 1129.36 633.365 1132.22 629.633 1135.95C625.901 1139.68 622.978 1144.1 620.863 1149.2C618.873 1154.3 617.878 1159.96 617.878 1166.18C617.878 1172.27 618.873 1177.93 620.863 1183.16C622.978 1188.26 625.839 1192.67 629.447 1196.41C633.179 1200.14 637.532 1203 642.508 1204.99C647.484 1206.98 652.895 1207.98 658.742 1207.98Z" fill="black"/>
<path d="M807.456 1231.49V1100.87H832.46L909.522 1194.91H897.394V1100.87H927.249V1231.49H902.432L825.182 1137.44H837.311V1231.49H807.456ZM944.602 1191V1173.27H1007.67V1191H944.602ZM976.136 1160.95C969.294 1160.95 963.199 1159.65 957.85 1157.04C952.625 1154.42 948.458 1150.75 945.348 1146.03C942.363 1141.3 940.87 1135.95 940.87 1129.98C940.87 1124.01 942.363 1118.72 945.348 1114.12C948.458 1109.52 952.625 1105.91 957.85 1103.3C963.199 1100.68 969.294 1099.38 976.136 1099.38C983.102 1099.38 989.197 1100.68 994.422 1103.3C999.771 1105.91 1003.94 1109.52 1006.92 1114.12C1009.91 1118.72 1011.4 1124.07 1011.4 1130.17C1011.4 1136.01 1009.85 1141.3 1006.74 1146.03C1003.75 1150.63 999.647 1154.3 994.422 1157.04C989.197 1159.65 983.102 1160.95 976.136 1160.95ZM976.136 1145.47C980.739 1145.47 984.47 1144.1 987.331 1141.36C990.193 1138.5 991.623 1134.71 991.623 1129.98C991.623 1125.25 990.193 1121.58 987.331 1118.97C984.47 1116.23 980.739 1114.87 976.136 1114.87C971.533 1114.87 967.739 1116.23 964.754 1118.97C961.893 1121.58 960.462 1125.31 960.462 1130.17C960.462 1134.77 961.893 1138.5 964.754 1141.36C967.739 1144.1 971.533 1145.47 976.136 1145.47Z" fill="black"/>
<path d="M1051.75 1231.49V1112.07L1064.81 1125.13H1025.63V1100.87H1081.98V1231.49H1051.75Z" fill="black"/>
<path d="M188.738 1050.36L175.718 1016.65H135.012L121.855 1050.36H113.769L152.281 952.231H159.408L196.961 1050.36H188.738ZM160.093 974.16C159.819 973.246 159.408 972.012 158.86 970.459C158.312 968.906 157.764 967.261 157.215 965.525C156.667 963.789 156.119 962.236 155.571 960.865C155.114 962.419 154.611 964.018 154.063 965.662C153.606 967.307 153.104 968.86 152.555 970.322C152.099 971.784 151.642 973.109 151.185 974.297L137.753 1009.52H173.251L160.093 974.16Z" fill="black"/>
<path d="M294.051 952.505V959.632H248.137V1050.36H240.188V952.505H294.051Z" fill="black"/>
<path d="M392.574 1050.36H338.849V952.505H392.574V959.632H346.798V995.54H389.97V1002.53H346.798V1043.24H392.574V1050.36Z" fill="black"/>
<path d="M515.613 1050.36H507.664V1002.67H451.883V1050.36H443.933V952.505H451.883V995.54H507.664V952.505H515.613V1050.36Z" fill="black"/>
<path d="M598.895 1050.36H590.946V959.632H559.424V952.505H630.418V959.632H598.895V1050.36Z" fill="black"/>
<path d="M713.301 958.261C707.271 958.261 701.834 959.312 696.992 961.414C692.24 963.424 688.22 966.348 684.931 970.185C681.641 973.931 679.129 978.454 677.393 983.754C675.657 988.962 674.789 994.764 674.789 1001.16C674.789 1009.93 676.159 1017.61 678.9 1024.18C681.641 1030.67 685.753 1035.7 691.235 1039.26C696.809 1042.82 703.707 1044.61 711.931 1044.61C716.682 1044.61 721.068 1044.24 725.088 1043.51C729.108 1042.78 732.809 1041.86 736.189 1040.77V1047.62C732.9 1048.9 729.199 1049.91 725.088 1050.64C721.068 1051.37 716.362 1051.73 710.971 1051.73C701.195 1051.73 692.971 1049.63 686.301 1045.43C679.723 1041.23 674.743 1035.33 671.362 1027.75C668.073 1020.16 666.428 1011.3 666.428 1001.16C666.428 993.941 667.479 987.271 669.581 981.149C671.682 975.028 674.743 969.728 678.763 965.251C682.783 960.774 687.672 957.302 693.428 954.835C699.276 952.368 705.946 951.134 713.438 951.134C718.098 951.134 722.575 951.591 726.87 952.505C731.255 953.419 735.321 954.744 739.067 956.48L735.915 963.469C732.443 961.733 728.788 960.454 724.951 959.632C721.205 958.718 717.321 958.261 713.301 958.261Z" fill="black"/>
<path d="M812.946 1050.36H804.997V959.632H773.475V952.505H844.469V959.632H812.946V1050.36Z" fill="black"/>
<path d="M915.364 952.505C923.496 952.505 930.166 953.327 935.374 954.972C940.582 956.617 944.42 959.221 946.887 962.784C949.445 966.256 950.724 970.779 950.724 976.353C950.724 980.099 949.993 983.525 948.531 986.632C947.161 989.738 945.059 992.342 942.227 994.444C939.394 996.454 935.922 997.825 931.811 998.555V998.967C936.562 999.789 940.536 1001.16 943.734 1003.08C947.024 1005 949.491 1007.6 951.135 1010.89C952.78 1014.09 953.602 1017.97 953.602 1022.54C953.602 1028.84 952.14 1034.1 949.217 1038.3C946.384 1042.41 942.364 1045.47 937.156 1047.48C932.039 1049.4 926.054 1050.36 919.202 1050.36H888.364V952.505H915.364ZM917.283 995.677C926.328 995.677 932.816 994.124 936.745 991.017C940.674 987.911 942.638 983.297 942.638 977.175C942.638 970.87 940.491 966.348 936.196 963.606C931.902 960.865 925.004 959.495 915.501 959.495H896.313V995.677H917.283ZM896.313 1002.53V1043.51H918.653C927.608 1043.51 934.278 1041.68 938.663 1038.03C943.049 1034.37 945.242 1029.07 945.242 1022.13C945.242 1017.56 944.237 1013.86 942.227 1011.03C940.217 1008.1 937.156 1005.96 933.044 1004.59C928.932 1003.22 923.724 1002.53 917.42 1002.53H896.313Z" fill="black"/>
<path d="M1087.07 1001.3C1087.07 1008.79 1086.12 1015.6 1084.2 1021.72C1082.37 1027.84 1079.63 1033.18 1075.97 1037.75C1072.32 1042.23 1067.7 1045.7 1062.13 1048.17C1056.65 1050.55 1050.25 1051.73 1042.94 1051.73C1035.54 1051.73 1029.1 1050.5 1023.62 1048.03C1018.14 1045.57 1013.57 1042.09 1009.91 1037.62C1006.26 1033.14 1003.52 1027.84 1001.69 1021.72C999.862 1015.5 998.948 1008.65 998.948 1001.16C998.948 991.2 1000.59 982.474 1003.88 974.982C1007.26 967.49 1012.24 961.642 1018.82 957.439C1025.49 953.145 1033.71 950.997 1043.49 950.997C1052.9 950.997 1060.81 953.053 1067.2 957.165C1073.69 961.185 1078.62 966.941 1082 974.434C1085.38 981.926 1087.07 990.88 1087.07 1001.3ZM1007.31 1001.16C1007.31 1009.93 1008.59 1017.56 1011.15 1024.05C1013.7 1030.53 1017.63 1035.61 1022.93 1039.26C1028.23 1042.92 1034.95 1044.74 1043.08 1044.74C1051.3 1044.74 1058.02 1042.96 1063.23 1039.4C1068.53 1035.74 1072.41 1030.67 1074.88 1024.18C1077.44 1017.7 1078.71 1010.07 1078.71 1001.3C1078.71 987.682 1075.74 977.084 1069.81 969.5C1063.96 961.916 1055.19 958.124 1043.49 958.124C1035.27 958.124 1028.46 959.906 1023.07 963.469C1017.77 967.033 1013.8 972.058 1011.15 978.545C1008.59 985.033 1007.31 992.571 1007.31 1001.16Z" fill="black"/>
</svg>
