<svg width="1000" height="1134" viewBox="0 0 1000 1134" fill="none" xmlns="http://www.w3.org/2000/svg">
<path d="M873.824 0.0423952C915.876 -0.0141317 957.929 -0.0141317 1000 0.0423952C999.981 10.0665 999.981 20.0906 1000 30.1147C983.032 30.1524 966.102 30.1712 949.153 30.2089C949.153 277.024 949.153 523.821 949.153 770.636C966.102 770.655 983.051 770.674 1000 770.712C999.963 781.358 999.963 792.022 1000 802.687C957.891 802.744 915.782 802.725 873.673 802.687C873.88 792.211 874.106 781.753 874.351 771.296C891.733 770.806 909.135 770.655 926.554 770.561C926.272 523.972 927.138 277.382 926.102 30.793C908.683 30.322 891.244 30.1713 873.824 30.0582C873.824 20.0529 873.805 10.0477 873.824 0.0423952Z" fill="black"/>
<path d="M0.0235389 88.5834C162.584 88.5834 325.164 88.5834 487.744 88.5834C487.819 126.89 487.8 165.196 487.744 203.503C371.623 203.559 255.503 203.484 139.383 203.54C139.345 246.237 139.326 288.934 139.383 331.649C198.987 332.007 258.61 330.971 318.234 332.101C362.038 334.098 407.461 340.071 446.294 361.91C471.793 375.928 494.354 396.429 508.252 422.243C526.519 453.276 530.229 490.358 530.606 525.668C529.514 565.143 517.913 605.296 492.753 636.272C473.544 661.125 447.141 679.892 418.196 691.725C377.292 709.154 332.301 714.732 288.14 714.261C192.095 714.016 96.0497 714.223 0.00470967 714.148C0.00470967 505.62 -0.0141258 297.111 0.0235389 88.5834ZM139.364 439.05C139.345 494.955 139.345 550.841 139.383 606.728C187.104 606.483 234.825 607.236 282.528 606.615C312.64 606.106 344.787 599.963 367.725 578.973C380.701 564.559 388.704 545.264 388.177 525.725C389.232 503.755 383.808 479.278 366.557 464.261C345.465 446.097 316.614 441.16 289.74 439.597C239.627 438.183 189.496 439.427 139.364 439.05Z" fill="black"/>
<path d="M566.875 88.5849C654.125 88.5661 741.375 88.5661 828.625 88.5849C828.625 297.113 828.644 505.622 828.607 714.149C781.545 714.187 734.464 714.149 687.402 714.149C687.346 544.55 687.421 374.988 687.364 205.407C647.195 205.483 607.045 205.332 566.875 205.407C566.8 166.46 566.819 127.532 566.875 88.5849Z" fill="black"/>
<path d="M12.9258 1131.21V1000.6H118.351V1024.67H42.9672V1051.54H79.1662C94.9644 1051.54 106.969 1054.83 115.179 1061.43C123.513 1068.02 127.68 1077.6 127.68 1090.16C127.68 1103.1 123.078 1113.17 113.872 1120.39C104.667 1127.6 91.6679 1131.21 74.8746 1131.21H12.9258ZM42.9672 1108.82H73.1952C80.9077 1108.82 86.8165 1107.33 90.9216 1104.34C95.0266 1101.23 97.0791 1096.75 97.0791 1090.91C97.0791 1079.46 89.1178 1073.74 73.1952 1073.74H42.9672V1108.82Z" fill="black"/>
<path d="M151.617 1131.21V1000.6H181.658V1051.91H215.431V1078.03H181.658V1131.21H151.617ZM266.931 1133.45C256.979 1133.45 247.774 1131.77 239.315 1128.41C230.981 1125.05 223.704 1120.39 217.484 1114.42C211.264 1108.32 206.413 1101.17 202.93 1092.96C199.571 1084.63 197.892 1075.61 197.892 1065.9C197.892 1056.08 199.571 1047.06 202.93 1038.85C206.413 1030.64 211.264 1023.55 217.484 1017.58C223.704 1011.48 230.981 1006.75 239.315 1003.4C247.774 1000.04 256.979 998.357 266.931 998.357C276.758 998.357 285.901 1000.04 294.36 1003.4C302.819 1006.75 310.096 1011.48 316.191 1017.58C322.411 1023.55 327.263 1030.7 330.746 1039.03C334.229 1047.24 335.97 1056.2 335.97 1065.9C335.97 1075.61 334.229 1084.63 330.746 1092.96C327.263 1101.17 322.411 1108.32 316.191 1114.42C310.096 1120.39 302.819 1125.05 294.36 1128.41C285.901 1131.77 276.758 1133.45 266.931 1133.45ZM266.931 1107.7C272.404 1107.7 277.442 1106.71 282.045 1104.72C286.648 1102.72 290.69 1099.93 294.174 1096.32C297.657 1092.59 300.393 1088.17 302.384 1083.07C304.374 1077.97 305.369 1072.25 305.369 1065.9C305.369 1059.56 304.374 1053.84 302.384 1048.74C300.393 1043.64 297.657 1039.28 294.174 1035.68C290.69 1031.94 286.648 1029.08 282.045 1027.09C277.442 1025.1 272.404 1024.11 266.931 1024.11C261.582 1024.11 256.544 1025.1 251.817 1027.09C247.214 1029.08 243.172 1031.94 239.688 1035.68C236.205 1039.28 233.469 1043.64 231.478 1048.74C229.488 1053.84 228.493 1059.56 228.493 1065.9C228.493 1072.25 229.488 1077.97 231.478 1083.07C233.469 1088.17 236.205 1092.59 239.688 1096.32C243.172 1099.93 247.214 1102.72 251.817 1104.72C256.544 1106.71 261.582 1107.7 266.931 1107.7Z" fill="black"/>
<path d="M360.462 1131.21V1000.6H417C428.693 1000.6 438.769 1002.52 447.228 1006.38C455.687 1010.11 462.217 1015.52 466.82 1022.61C471.423 1029.7 473.724 1038.16 473.724 1047.99C473.724 1057.69 471.423 1066.09 466.82 1073.18C462.217 1080.27 455.687 1085.74 447.228 1089.6C438.769 1093.33 428.693 1095.2 417 1095.2H377.255L390.69 1081.58V1131.21H360.462ZM390.69 1084.94L377.255 1070.57H415.32C424.65 1070.57 431.616 1068.58 436.219 1064.6C440.821 1060.62 443.123 1055.08 443.123 1047.99C443.123 1040.78 440.821 1035.18 436.219 1031.2C431.616 1027.22 424.65 1025.23 415.32 1025.23H377.255L390.69 1010.86V1084.94Z" fill="black"/>
<path d="M558.928 1133.45C548.603 1133.45 539.025 1131.77 530.193 1128.41C521.485 1125.05 513.897 1120.33 507.429 1114.23C501.085 1108.14 496.109 1100.98 492.501 1092.77C489.018 1084.56 487.277 1075.61 487.277 1065.9C487.277 1056.2 489.018 1047.24 492.501 1039.03C496.109 1030.82 501.147 1023.67 507.615 1017.58C514.084 1011.48 521.672 1006.75 530.38 1003.4C539.087 1000.04 548.541 998.357 558.742 998.357C569.066 998.357 578.521 1000.04 587.104 1003.4C595.811 1006.75 603.337 1011.48 609.682 1017.58C616.15 1023.67 621.188 1030.82 624.796 1039.03C628.403 1047.12 630.207 1056.08 630.207 1065.9C630.207 1075.61 628.403 1084.63 624.796 1092.96C621.188 1101.17 616.15 1108.32 609.682 1114.42C603.337 1120.39 595.811 1125.05 587.104 1128.41C578.521 1131.77 569.129 1133.45 558.928 1133.45ZM558.742 1107.7C564.588 1107.7 569.937 1106.71 574.789 1104.72C579.765 1102.72 584.118 1099.86 587.85 1096.13C591.582 1092.4 594.443 1087.98 596.433 1082.88C598.548 1077.78 599.606 1072.12 599.606 1065.9C599.606 1059.68 598.548 1054.02 596.433 1048.92C594.443 1043.82 591.582 1039.41 587.85 1035.68C584.243 1031.94 579.951 1029.08 574.975 1027.09C569.999 1025.1 564.588 1024.11 558.742 1024.11C552.895 1024.11 547.484 1025.1 542.508 1027.09C537.657 1029.08 533.365 1031.94 529.633 1035.68C525.901 1039.41 522.978 1043.82 520.863 1048.92C518.873 1054.02 517.878 1059.68 517.878 1065.9C517.878 1072 518.873 1077.66 520.863 1082.88C522.978 1087.98 525.839 1092.4 529.447 1096.13C533.179 1099.86 537.532 1102.72 542.508 1104.72C547.484 1106.71 552.895 1107.7 558.742 1107.7Z" fill="black"/>
<path d="M707.456 1131.21V1000.6H732.46L809.522 1094.64H797.394V1000.6H827.249V1131.21H802.432L725.182 1037.17H737.311V1131.21H707.456ZM844.602 1090.72V1072.99H907.67V1090.72H844.602ZM876.136 1060.68C869.294 1060.68 863.199 1059.37 857.85 1056.76C852.625 1054.15 848.458 1050.48 845.348 1045.75C842.363 1041.02 840.87 1035.68 840.87 1029.7C840.87 1023.73 842.363 1018.45 845.348 1013.84C848.458 1009.24 852.625 1005.63 857.85 1003.02C863.199 1000.41 869.294 999.104 876.136 999.104C883.102 999.104 889.197 1000.41 894.422 1003.02C899.771 1005.63 903.938 1009.24 906.924 1013.84C909.909 1018.45 911.402 1023.8 911.402 1029.89C911.402 1035.74 909.847 1041.02 906.737 1045.75C903.752 1050.35 899.647 1054.02 894.422 1056.76C889.197 1059.37 883.102 1060.68 876.136 1060.68ZM876.136 1045.19C880.739 1045.19 884.47 1043.82 887.331 1041.09C890.193 1038.23 891.623 1034.43 891.623 1029.7C891.623 1024.98 890.193 1021.31 887.331 1018.7C884.47 1015.96 880.739 1014.59 876.136 1014.59C871.533 1014.59 867.739 1015.96 864.754 1018.7C861.893 1021.31 860.462 1025.04 860.462 1029.89C860.462 1034.49 861.893 1038.23 864.754 1041.09C867.739 1043.82 871.533 1045.19 876.136 1045.19Z" fill="black"/>
<path d="M951.75 1131.21V1011.79L964.811 1024.85H925.627V1000.6H981.978V1131.21H951.75Z" fill="black"/>
<path d="M88.738 950.088L75.7177 916.372H35.0124L21.8551 950.088H13.7689L52.2813 851.956H59.4082L96.9613 950.088H88.738ZM60.0935 873.885C59.8193 872.971 59.4082 871.738 58.86 870.184C58.3117 868.631 57.7635 866.987 57.2153 865.25C56.6671 863.514 56.1189 861.961 55.5706 860.591C55.1138 862.144 54.6113 863.743 54.063 865.388C53.6062 867.032 53.1036 868.585 52.5554 870.047C52.0986 871.509 51.6417 872.834 51.1849 874.022L37.7535 909.245H73.2507L60.0935 873.885Z" fill="black"/>
<path d="M194.051 852.23V859.357H148.137V950.088H140.188V852.23H194.051Z" fill="black"/>
<path d="M292.574 950.088H238.849V852.23H292.574V859.357H246.798V895.266H289.97V902.255H246.798V942.961H292.574V950.088Z" fill="black"/>
<path d="M415.613 950.088H407.664V902.392H351.883V950.088H343.933V852.23H351.883V895.266H407.664V852.23H415.613V950.088Z" fill="black"/>
<path d="M498.895 950.088H490.946V859.357H459.424V852.23H530.418V859.357H498.895V950.088Z" fill="black"/>
<path d="M613.301 857.987C607.271 857.987 601.834 859.037 596.992 861.139C592.24 863.149 588.22 866.073 584.931 869.91C581.641 873.657 579.129 878.179 577.393 883.479C575.657 888.687 574.789 894.489 574.789 900.885C574.789 909.656 576.159 917.331 578.9 923.91C581.641 930.397 585.753 935.423 591.235 938.986C596.809 942.55 603.707 944.331 611.931 944.331C616.682 944.331 621.068 943.966 625.088 943.235C629.108 942.504 632.809 941.59 636.189 940.494V947.346C632.9 948.626 629.199 949.631 625.088 950.362C621.068 951.093 616.362 951.458 610.971 951.458C601.195 951.458 592.971 949.357 586.301 945.154C579.723 940.951 574.743 935.057 571.362 927.473C568.073 919.89 566.428 911.027 566.428 900.885C566.428 893.667 567.479 886.997 569.581 880.875C571.682 874.753 574.743 869.454 578.763 864.976C582.783 860.499 587.672 857.027 593.428 854.56C599.276 852.093 605.946 850.86 613.438 850.86C618.098 850.86 622.575 851.317 626.87 852.23C631.255 853.144 635.321 854.469 639.067 856.205L635.915 863.195C632.443 861.459 628.788 860.179 624.951 859.357C621.205 858.443 617.321 857.987 613.301 857.987Z" fill="black"/>
<path d="M712.946 950.088H704.997V859.357H673.475V852.23H744.469V859.357H712.946V950.088Z" fill="black"/>
<path d="M815.364 852.23C823.496 852.23 830.166 853.053 835.374 854.697C840.582 856.342 844.42 858.946 846.887 862.509C849.445 865.981 850.724 870.504 850.724 876.078C850.724 879.824 849.993 883.25 848.531 886.357C847.161 889.464 845.059 892.068 842.227 894.169C839.394 896.179 835.922 897.55 831.811 898.281V898.692C836.562 899.514 840.536 900.885 843.734 902.804C847.024 904.722 849.491 907.326 851.135 910.616C852.78 913.814 853.602 917.697 853.602 922.265C853.602 928.57 852.14 933.824 849.217 938.027C846.384 942.138 842.364 945.199 837.156 947.209C832.039 949.128 826.054 950.088 819.202 950.088H788.364V852.23H815.364ZM817.283 895.403C826.328 895.403 832.816 893.849 836.745 890.743C840.674 887.636 842.638 883.022 842.638 876.9C842.638 870.596 840.491 866.073 836.196 863.332C831.902 860.591 825.004 859.22 815.501 859.22H796.313V895.403H817.283ZM796.313 902.255V943.235H818.653C827.608 943.235 834.278 941.407 838.663 937.753C843.049 934.098 845.242 928.798 845.242 921.854C845.242 917.286 844.237 913.585 842.227 910.753C840.217 907.829 837.156 905.682 833.044 904.311C828.932 902.941 823.724 902.255 817.42 902.255H796.313Z" fill="black"/>
<path d="M987.075 901.022C987.075 908.514 986.115 915.321 984.197 921.443C982.369 927.565 979.628 932.91 975.973 937.478C972.318 941.956 967.704 945.428 962.131 947.895C956.648 950.27 950.253 951.458 942.943 951.458C935.542 951.458 929.1 950.225 923.618 947.758C918.136 945.291 913.568 941.819 909.913 937.341C906.258 932.864 903.517 927.565 901.689 921.443C899.862 915.23 898.948 908.377 898.948 900.885C898.948 890.925 900.593 882.2 903.882 874.707C907.263 867.215 912.243 861.367 918.821 857.164C925.491 852.87 933.715 850.723 943.491 850.723C952.902 850.723 960.806 852.778 967.202 856.89C973.689 860.91 978.623 866.667 982.004 874.159C985.384 881.651 987.075 890.606 987.075 901.022ZM907.309 900.885C907.309 909.656 908.588 917.286 911.146 923.773C913.705 930.26 917.634 935.331 922.933 938.986C928.232 942.641 934.948 944.468 943.08 944.468C951.303 944.468 958.019 942.687 963.227 939.123C968.527 935.468 972.41 930.397 974.877 923.91C977.435 917.423 978.714 909.793 978.714 901.022C978.714 887.408 975.745 876.809 969.806 869.225C963.958 861.641 955.187 857.85 943.491 857.85C935.268 857.85 928.461 859.631 923.07 863.195C917.771 866.758 913.796 871.783 911.146 878.271C908.588 884.758 907.309 892.296 907.309 900.885Z" fill="black"/>
</svg>
