<svg width="1763" height="732" viewBox="0 0 1763 732" fill="none" xmlns="http://www.w3.org/2000/svg">
<g filter="url(#filter0_d_1058_2)">
<path d="M503.865 100.02C523.301 99.9935 542.737 99.9935 562.181 100.02C562.172 104.653 562.172 109.285 562.181 113.918C554.339 113.936 546.514 113.945 538.681 113.962C538.681 228.035 538.681 342.099 538.681 456.173C546.514 456.181 554.348 456.19 562.181 456.207C562.164 461.128 562.164 466.057 562.181 470.986C542.719 471.012 523.257 471.003 503.795 470.986C503.891 466.144 503.996 461.311 504.109 456.477C512.142 456.251 520.185 456.181 528.236 456.138C528.105 342.169 528.506 228.201 528.027 114.232C519.976 114.014 511.916 113.945 503.865 113.892C503.865 109.268 503.856 104.644 503.865 100.02Z" fill="white"/>
<path d="M100.011 140.943C175.143 140.943 250.284 140.943 325.425 140.943C325.46 158.647 325.451 176.352 325.425 194.056C271.756 194.082 218.088 194.048 164.42 194.074C164.402 213.807 164.394 233.541 164.42 253.283C191.968 253.448 219.524 252.969 247.081 253.492C267.326 254.415 288.32 257.176 306.268 267.269C318.053 273.748 328.48 283.223 334.903 295.154C343.346 309.497 345.061 326.635 345.235 342.955C344.73 361.199 339.369 379.757 327.74 394.074C318.862 405.56 306.659 414.234 293.281 419.703C274.376 427.758 253.583 430.336 233.172 430.118C188.782 430.005 144.392 430.101 100.002 430.066C100.002 333.689 99.9935 237.32 100.011 140.943ZM164.411 302.922C164.402 328.76 164.402 354.589 164.42 380.419C186.476 380.306 208.531 380.654 230.578 380.367C244.496 380.131 259.353 377.293 269.955 367.591C275.952 360.929 279.651 352.012 279.407 342.981C279.895 332.827 277.388 321.514 269.415 314.574C259.667 306.179 246.332 303.897 233.912 303.174C210.751 302.521 187.581 303.096 164.411 302.922Z" fill="white"/>
<path d="M362.001 140.943C402.326 140.934 442.651 140.934 482.976 140.943C482.976 237.32 482.985 333.689 482.967 430.067C461.216 430.084 439.457 430.067 417.706 430.067C417.679 351.681 417.714 273.313 417.688 194.936C399.123 194.971 380.566 194.901 362.001 194.936C361.966 176.935 361.974 158.944 362.001 140.943Z" fill="white"/>
<path d="M613.923 432.241V293.181H726.164V318.808H645.907V347.414H684.446C701.266 347.414 714.046 350.924 722.787 357.943C731.66 364.962 736.097 375.16 736.097 388.536C736.097 402.31 731.197 413.037 721.396 420.719C711.596 428.4 697.756 432.241 679.877 432.241H613.923ZM645.907 408.402H678.089C686.3 408.402 692.591 406.813 696.961 403.634C701.332 400.323 703.517 395.556 703.517 389.331C703.517 377.147 695.041 371.055 678.089 371.055H645.907V408.402Z" fill="white"/>
<path d="M761.581 432.241V293.181H793.565V347.812H829.522V375.624H793.565V432.241H761.581ZM884.351 434.625C873.756 434.625 863.955 432.837 854.95 429.261C846.076 425.685 838.329 420.719 831.707 414.362C825.085 407.872 819.92 400.257 816.212 391.516C812.636 382.643 810.848 373.041 810.848 362.711C810.848 352.248 812.636 342.647 816.212 333.906C819.92 325.165 825.085 317.616 831.707 311.259C838.329 304.769 846.076 299.737 854.95 296.161C863.955 292.585 873.756 290.797 884.351 290.797C894.814 290.797 904.548 292.585 913.553 296.161C922.559 299.737 930.307 304.769 936.796 311.259C943.418 317.616 948.583 325.231 952.292 334.104C956 342.845 957.854 352.381 957.854 362.711C957.854 373.041 956 382.643 952.292 391.516C948.583 400.257 943.418 407.872 936.796 414.362C930.307 420.719 922.559 425.685 913.553 429.261C904.548 432.837 894.814 434.625 884.351 434.625ZM884.351 407.21C890.178 407.21 895.542 406.151 900.442 404.032C905.342 401.913 909.647 398.933 913.355 395.092C917.063 391.119 919.977 386.417 922.096 380.987C924.215 375.557 925.274 369.465 925.274 362.711C925.274 355.957 924.215 349.864 922.096 344.435C919.977 339.005 917.063 334.369 913.355 330.529C909.647 326.555 905.342 323.509 900.442 321.39C895.542 319.271 890.178 318.212 884.351 318.212C878.656 318.212 873.292 319.271 868.26 321.39C863.359 323.509 859.055 326.555 855.347 330.529C851.639 334.369 848.725 339.005 846.606 344.435C844.487 349.864 843.428 355.957 843.428 362.711C843.428 369.465 844.487 375.557 846.606 380.987C848.725 386.417 851.639 391.119 855.347 395.092C859.055 398.933 863.359 401.913 868.26 404.032C873.292 406.151 878.656 407.21 884.351 407.21Z" fill="white"/>
<path d="M983.929 432.241V293.181H1044.12C1056.57 293.181 1067.3 295.234 1076.3 299.339C1085.31 303.313 1092.26 309.074 1097.16 316.623C1102.06 324.172 1104.51 333.177 1104.51 343.64C1104.51 353.97 1102.06 362.91 1097.16 370.459C1092.26 378.008 1085.31 383.835 1076.3 387.94C1067.3 391.914 1056.57 393.9 1044.12 393.9H1001.81L1016.11 379.398V432.241H983.929ZM1016.11 382.974L1001.81 367.677H1042.33C1052.27 367.677 1059.68 365.558 1064.58 361.32C1069.48 357.082 1071.93 351.189 1071.93 343.64C1071.93 335.958 1069.48 329.999 1064.58 325.761C1059.68 321.523 1052.27 319.404 1042.33 319.404H1001.81L1016.11 304.107V382.974Z" fill="white"/>
<path d="M1195.23 434.625C1184.24 434.625 1174.04 432.837 1164.63 429.261C1155.36 425.685 1147.28 420.653 1140.4 414.163C1133.64 407.674 1128.35 400.058 1124.51 391.318C1120.8 382.577 1118.94 373.041 1118.94 362.711C1118.94 352.381 1120.8 342.845 1124.51 334.104C1128.35 325.363 1133.71 317.748 1140.6 311.259C1147.48 304.769 1155.56 299.737 1164.83 296.161C1174.1 292.585 1184.17 290.797 1195.03 290.797C1206.02 290.797 1216.09 292.585 1225.22 296.161C1234.5 299.737 1242.51 304.769 1249.26 311.259C1256.15 317.748 1261.51 325.363 1265.35 334.104C1269.19 342.713 1271.11 352.248 1271.11 362.711C1271.11 373.041 1269.19 382.643 1265.35 391.516C1261.51 400.257 1256.15 407.872 1249.26 414.362C1242.51 420.719 1234.5 425.685 1225.22 429.261C1216.09 432.837 1206.09 434.625 1195.23 434.625ZM1195.03 407.21C1201.25 407.21 1206.95 406.151 1212.11 404.032C1217.41 401.913 1222.05 398.867 1226.02 394.893C1229.99 390.92 1233.04 386.219 1235.16 380.789C1237.41 375.359 1238.53 369.333 1238.53 362.711C1238.53 356.089 1237.41 350.063 1235.16 344.633C1233.04 339.203 1229.99 334.502 1226.02 330.529C1222.18 326.555 1217.61 323.509 1212.31 321.39C1207.01 319.271 1201.25 318.212 1195.03 318.212C1188.8 318.212 1183.04 319.271 1177.75 321.39C1172.58 323.509 1168.01 326.555 1164.04 330.529C1160.07 334.502 1156.95 339.203 1154.7 344.633C1152.58 350.063 1151.52 356.089 1151.52 362.711C1151.52 369.2 1152.58 375.226 1154.7 380.789C1156.95 386.219 1160 390.92 1163.84 394.893C1167.81 398.867 1172.45 401.913 1177.75 404.032C1183.04 406.151 1188.8 407.21 1195.03 407.21Z" fill="white"/>
<path d="M1353.36 432.241V293.181H1379.98L1462.02 393.304H1449.11V293.181H1480.9V432.241H1454.47L1372.23 332.118H1385.14V432.241H1353.36ZM1499.37 389.132V370.26H1566.52V389.132H1499.37ZM1532.94 357.149C1525.66 357.149 1519.17 355.758 1513.48 352.977C1507.91 350.196 1503.48 346.289 1500.17 341.256C1496.99 336.223 1495.4 330.529 1495.4 324.172C1495.4 317.814 1496.99 312.186 1500.17 307.286C1503.48 302.385 1507.91 298.545 1513.48 295.764C1519.17 292.982 1525.66 291.592 1532.94 291.592C1540.36 291.592 1546.85 292.982 1552.41 295.764C1558.11 298.545 1562.54 302.385 1565.72 307.286C1568.9 312.186 1570.49 317.881 1570.49 324.37C1570.49 330.595 1568.84 336.223 1565.52 341.256C1562.35 346.156 1557.98 350.063 1552.41 352.977C1546.85 355.758 1540.36 357.149 1532.94 357.149ZM1532.94 340.66C1537.84 340.66 1541.82 339.203 1544.86 336.29C1547.91 333.244 1549.43 329.204 1549.43 324.172C1549.43 319.139 1547.91 315.232 1544.86 312.451C1541.82 309.537 1537.84 308.08 1532.94 308.08C1528.04 308.08 1524 309.537 1520.83 312.451C1517.78 315.232 1516.26 319.205 1516.26 324.37C1516.26 329.27 1517.78 333.244 1520.83 336.29C1524 339.203 1528.04 340.66 1532.94 340.66Z" fill="white"/>
<path d="M1613.45 432.241V305.1L1627.35 319.006H1585.64V293.181H1645.63V432.241H1613.45Z" fill="white"/>
<path d="M694.634 238.475L680.771 202.579H637.434L623.426 238.475H614.817L655.82 133.999H663.407L703.389 238.475H694.634ZM664.137 157.345C663.845 156.373 663.407 155.059 662.824 153.406C662.24 151.752 661.656 150.001 661.073 148.153C660.489 146.304 659.905 144.651 659.322 143.192C658.835 144.845 658.3 146.548 657.717 148.299C657.23 150.05 656.695 151.703 656.112 153.26C655.625 154.816 655.139 156.227 654.652 157.491L640.353 194.992H678.145L664.137 157.345Z" fill="white"/>
<path d="M806.755 134.291V141.878H757.873V238.475H749.41V134.291H806.755Z" fill="white"/>
<path d="M911.649 238.475H854.45V134.291H911.649V141.878H862.913V180.108H908.876V187.55H862.913V230.887H911.649V238.475Z" fill="white"/>
<path d="M1042.64 238.475H1034.18V187.696H974.792V238.475H966.329V134.291H974.792V180.108H1034.18V134.291H1042.64V238.475Z" fill="white"/>
<path d="M1131.31 238.475H1122.85V141.878H1089.29V134.291H1164.87V141.878H1131.31V238.475Z" fill="white"/>
<path d="M1253.11 140.419C1246.69 140.419 1240.9 141.538 1235.75 143.775C1230.69 145.915 1226.41 149.028 1222.91 153.114C1219.41 157.102 1216.73 161.917 1214.88 167.56C1213.03 173.104 1212.11 179.282 1212.11 186.091C1212.11 195.43 1213.57 203.601 1216.49 210.605C1219.41 217.512 1223.78 222.862 1229.62 226.656C1235.55 230.45 1242.9 232.346 1251.65 232.346C1256.71 232.346 1261.38 231.957 1265.66 231.179C1269.94 230.401 1273.88 229.428 1277.48 228.261V235.557C1273.98 236.918 1270.04 237.989 1265.66 238.767C1261.38 239.545 1256.37 239.934 1250.63 239.934C1240.22 239.934 1231.47 237.697 1224.37 233.222C1217.36 228.747 1212.06 222.473 1208.46 214.399C1204.96 206.325 1203.21 196.889 1203.21 186.091C1203.21 178.406 1204.33 171.305 1206.57 164.787C1208.8 158.27 1212.06 152.627 1216.34 147.861C1220.62 143.094 1225.83 139.398 1231.95 136.771C1238.18 134.145 1245.28 132.831 1253.26 132.831C1258.22 132.831 1262.99 133.318 1267.56 134.291C1272.23 135.263 1276.56 136.674 1280.54 138.522L1277.19 145.964C1273.49 144.116 1269.6 142.754 1265.52 141.878C1261.53 140.905 1257.39 140.419 1253.11 140.419Z" fill="white"/>
<path d="M1359.2 238.475H1350.74V141.878H1317.18V134.291H1392.76V141.878H1359.2V238.475Z" fill="white"/>
<path d="M1468.24 134.291C1476.9 134.291 1484 135.166 1489.54 136.917C1495.09 138.668 1499.17 141.441 1501.8 145.234C1504.52 148.931 1505.89 153.746 1505.89 159.68C1505.89 163.668 1505.11 167.316 1503.55 170.624C1502.09 173.931 1499.86 176.704 1496.84 178.941C1493.82 181.081 1490.13 182.54 1485.75 183.319V183.756C1490.81 184.632 1495.04 186.091 1498.44 188.134C1501.95 190.177 1504.57 192.949 1506.32 196.451C1508.08 199.856 1508.95 203.99 1508.95 208.854C1508.95 215.566 1507.39 221.16 1504.28 225.634C1501.27 230.012 1496.99 233.271 1491.44 235.411C1485.99 237.454 1479.62 238.475 1472.33 238.475H1439.49V134.291H1468.24ZM1470.28 180.254C1479.91 180.254 1486.82 178.601 1491 175.293C1495.19 171.986 1497.28 167.073 1497.28 160.556C1497.28 153.843 1494.99 149.028 1490.42 146.11C1485.85 143.192 1478.5 141.732 1468.39 141.732H1447.96V180.254H1470.28ZM1447.96 187.55V231.179H1471.74C1481.28 231.179 1488.38 229.234 1493.05 225.342C1497.72 221.451 1500.05 215.809 1500.05 208.416C1500.05 203.552 1498.98 199.613 1496.84 196.597C1494.7 193.484 1491.44 191.198 1487.06 189.739C1482.69 188.28 1477.14 187.55 1470.43 187.55H1447.96Z" fill="white"/>
<path d="M1651.05 186.237C1651.05 194.214 1650.03 201.461 1647.99 207.978C1646.04 214.496 1643.12 220.187 1639.23 225.051C1635.34 229.817 1630.43 233.514 1624.5 236.14C1618.66 238.669 1611.85 239.934 1604.07 239.934C1596.19 239.934 1589.33 238.621 1583.49 235.994C1577.66 233.368 1572.79 229.671 1568.9 224.905C1565.01 220.138 1562.09 214.496 1560.15 207.978C1558.2 201.364 1557.23 194.068 1557.23 186.091C1557.23 175.488 1558.98 166.198 1562.48 158.221C1566.08 150.244 1571.38 144.018 1578.39 139.544C1585.49 134.972 1594.24 132.686 1604.65 132.686C1614.67 132.686 1623.09 134.874 1629.89 139.252C1636.8 143.532 1642.05 149.66 1645.65 157.637C1649.25 165.614 1651.05 175.147 1651.05 186.237ZM1566.13 186.091C1566.13 195.43 1567.49 203.552 1570.22 210.459C1572.94 217.366 1577.12 222.765 1582.76 226.656C1588.41 230.547 1595.56 232.492 1604.21 232.492C1612.97 232.492 1620.12 230.595 1625.66 226.802C1631.31 222.911 1635.44 217.512 1638.07 210.605C1640.79 203.698 1642.15 195.576 1642.15 186.237C1642.15 171.742 1638.99 160.458 1632.67 152.384C1626.44 144.31 1617.1 140.273 1604.65 140.273C1595.9 140.273 1588.65 142.17 1582.91 145.964C1577.27 149.758 1573.04 155.108 1570.22 162.015C1567.49 168.921 1566.13 176.947 1566.13 186.091Z" fill="white"/>
</g>
<line x1="100" y1="518" x2="1651" y2="518" stroke="white" stroke-width="2"/>
<g filter="url(#filter1_d_1058_2)">
<path d="M154.4 636.456C148.548 636.456 143.114 635.468 138.098 633.492C133.082 631.44 128.712 628.59 124.988 624.942C121.264 621.294 118.376 617.038 116.324 612.174C114.272 607.234 113.246 601.876 113.246 596.1C113.246 590.324 114.272 585.004 116.324 580.14C118.376 575.2 121.264 570.906 124.988 567.258C128.712 563.61 133.082 560.798 138.098 558.822C143.114 556.77 148.548 555.744 154.4 555.744C159.796 555.744 164.888 556.618 169.676 558.366C174.464 560.114 178.606 562.774 182.102 566.346L179.708 568.854C176.136 565.434 172.222 563.002 167.966 561.558C163.786 560.038 159.302 559.278 154.514 559.278C149.194 559.278 144.254 560.228 139.694 562.128C135.134 563.952 131.144 566.536 127.724 569.88C124.38 573.224 121.758 577.138 119.858 581.622C118.034 586.03 117.122 590.856 117.122 596.1C117.122 601.344 118.034 606.208 119.858 610.692C121.758 615.1 124.38 618.976 127.724 622.32C131.144 625.664 135.134 628.286 139.694 630.186C144.254 632.01 149.194 632.922 154.514 632.922C159.302 632.922 163.786 632.2 167.966 630.756C172.222 629.236 176.136 626.728 179.708 623.232L182.102 625.74C178.606 629.312 174.464 632.01 169.676 633.834C164.888 635.582 159.796 636.456 154.4 636.456ZM208.691 636V579L209.831 580.254H184.979V576.834H236.051V580.254H211.199L212.453 579V636H208.691ZM248.635 636V576.834H252.397V629.958L296.857 576.834H300.163V636H296.401V582.876L251.827 636H248.635ZM313.473 635.772L313.929 632.466C314.385 632.542 314.879 632.656 315.411 632.808C315.943 632.884 316.399 632.922 316.779 632.922C319.363 632.922 321.415 631.934 322.935 629.958C324.531 627.906 325.747 625.17 326.583 621.75C327.419 618.254 328.027 614.34 328.407 610.008C328.863 605.676 329.167 601.192 329.319 596.556L330.345 576.834H370.473V636H366.711V578.886L367.851 580.254H332.739L333.879 578.886L332.967 597.126C332.663 602.218 332.245 607.158 331.713 611.946C331.181 616.658 330.383 620.876 329.319 624.6C328.331 628.248 326.887 631.136 324.987 633.264C323.163 635.392 320.731 636.456 317.691 636.456C317.083 636.456 316.399 636.38 315.639 636.228C314.955 636.076 314.233 635.924 313.473 635.772ZM418.6 598.836C425.896 598.912 431.444 600.508 435.244 603.624C439.044 606.74 440.944 611.262 440.944 617.19C440.944 623.422 438.93 628.172 434.902 631.44C430.95 634.708 425.136 636.304 417.46 636.228L396.256 636V576.834H400.018V598.608L418.6 598.836ZM417.46 633.036C423.996 633.112 428.898 631.82 432.166 629.16C435.51 626.5 437.182 622.548 437.182 617.304C437.182 612.136 435.548 608.298 432.28 605.79C429.012 603.282 424.072 601.99 417.46 601.914L400.018 601.686V632.922L417.46 633.036ZM455.212 636.342C454.224 636.342 453.35 636 452.59 635.316C451.83 634.556 451.45 633.644 451.45 632.58C451.45 631.516 451.83 630.642 452.59 629.958C453.35 629.198 454.224 628.818 455.212 628.818C456.276 628.818 457.15 629.198 457.834 629.958C458.594 630.642 458.974 631.516 458.974 632.58C458.974 633.644 458.594 634.556 457.834 635.316C457.15 636 456.276 636.342 455.212 636.342ZM565.947 636L532.545 595.53L535.851 593.82L570.507 636H565.947ZM509.973 636V556.2H513.849V636H509.973ZM512.481 597.24V593.706H536.193V597.24H512.481ZM535.965 596.442L532.545 595.416L563.895 556.2H568.341L535.965 596.442ZM622.127 636V622.206L622.013 620.154V597.696C622.013 591.844 620.455 587.398 617.339 584.358C614.223 581.318 609.701 579.798 603.773 579.798C599.441 579.798 595.489 580.558 591.917 582.078C588.345 583.522 585.267 585.422 582.683 587.778L580.631 585.042C583.443 582.382 586.901 580.292 591.005 578.772C595.109 577.176 599.403 576.378 603.887 576.378C610.955 576.378 616.351 578.202 620.075 581.85C623.875 585.422 625.775 590.704 625.775 597.696V636H622.127ZM600.125 636.342C595.641 636.342 591.803 635.658 588.611 634.29C585.495 632.922 583.101 630.984 581.429 628.476C579.757 625.892 578.921 622.966 578.921 619.698C578.921 616.81 579.605 614.15 580.973 611.718C582.341 609.21 584.583 607.234 587.699 605.79C590.891 604.27 595.147 603.51 600.467 603.51H623.381V606.588H600.467C594.007 606.588 589.409 607.804 586.673 610.236C584.013 612.668 582.683 615.746 582.683 619.47C582.683 623.65 584.241 626.994 587.357 629.502C590.473 631.934 594.805 633.15 600.353 633.15C605.825 633.15 610.347 631.934 613.919 629.502C617.491 626.994 620.189 623.46 622.013 618.9L623.267 621.408C621.747 625.892 619.011 629.502 615.059 632.238C611.107 634.974 606.129 636.342 600.125 636.342ZM687.479 609.78C683.603 611.452 679.727 612.744 675.851 613.656C672.051 614.492 668.479 614.91 665.135 614.91C658.599 614.91 653.279 613.39 649.175 610.35C645.147 607.31 643.133 602.75 643.133 596.67V576.834H646.895V596.556C646.895 601.496 648.567 605.258 651.911 607.842C655.331 610.426 659.853 611.718 665.477 611.718C668.745 611.718 672.241 611.262 675.965 610.35C679.689 609.438 683.565 608.108 687.593 606.36L687.479 609.78ZM687.023 636V576.834H690.785V636H687.023ZM740.487 636.342C734.635 636.342 729.467 635.088 724.983 632.58C720.499 629.996 716.965 626.424 714.381 621.864C711.797 617.304 710.505 612.136 710.505 606.36C710.505 600.508 711.683 595.34 714.039 590.856C716.471 586.372 719.777 582.838 723.957 580.254C728.213 577.67 733.001 576.378 738.321 576.378C743.565 576.378 748.277 577.632 752.457 580.14C756.713 582.648 760.019 586.144 762.375 590.628C764.807 595.036 766.023 600.128 766.023 605.904C766.023 606.056 766.023 606.246 766.023 606.474C766.023 606.626 766.023 606.778 766.023 606.93H713.013V603.852H763.971L762.489 605.676C762.489 600.736 761.425 596.328 759.297 592.452C757.245 588.5 754.395 585.422 750.747 583.218C747.099 580.938 742.957 579.798 738.321 579.798C733.685 579.798 729.543 580.938 725.895 583.218C722.247 585.422 719.359 588.5 717.231 592.452C715.179 596.328 714.153 600.774 714.153 605.79V606.474C714.153 611.642 715.293 616.24 717.573 620.268C719.853 624.22 722.969 627.336 726.921 629.616C730.873 631.82 735.395 632.922 740.487 632.922C744.363 632.922 748.011 632.2 751.431 630.756C754.927 629.312 757.815 627.108 760.095 624.144L762.489 626.652C759.829 629.844 756.561 632.276 752.685 633.948C748.885 635.544 744.819 636.342 740.487 636.342ZM808.381 636.342C802.757 636.342 797.703 635.088 793.219 632.58C788.811 629.996 785.315 626.462 782.731 621.978C780.223 617.418 778.969 612.212 778.969 606.36C778.969 600.508 780.223 595.34 782.731 590.856C785.315 586.296 788.811 582.762 793.219 580.254C797.703 577.67 802.757 576.378 808.381 576.378C812.865 576.378 817.007 577.252 820.807 579C824.607 580.672 827.761 583.18 830.269 586.524L827.419 588.918C825.215 585.802 822.441 583.522 819.097 582.078C815.829 580.634 812.257 579.912 808.381 579.912C803.517 579.912 799.147 581.014 795.271 583.218C791.395 585.422 788.317 588.538 786.037 592.566C783.833 596.518 782.731 601.116 782.731 606.36C782.731 611.604 783.833 616.24 786.037 620.268C788.317 624.22 791.395 627.336 795.271 629.616C799.147 631.82 803.517 632.922 808.381 632.922C812.257 632.922 815.829 632.2 819.097 630.756C822.441 629.236 825.215 626.956 827.419 623.916L830.269 626.196C827.761 629.616 824.607 632.162 820.807 633.834C817.007 635.506 812.865 636.342 808.381 636.342ZM856.955 636V579L858.095 580.254H833.243V576.834H884.315V580.254H859.463L860.717 579V636H856.955ZM896.899 636V576.834H920.839C927.223 576.834 932.239 578.126 935.887 580.71C939.611 583.218 941.473 586.942 941.473 591.882C941.473 596.746 939.687 600.394 936.115 602.826C932.543 605.258 927.869 606.474 922.093 606.474L923.689 605.106C930.605 605.106 935.659 606.398 938.851 608.982C942.043 611.566 943.639 615.328 943.639 620.268C943.639 625.36 941.815 629.274 938.167 632.01C934.519 634.67 928.933 636 921.409 636H896.899ZM900.661 632.808H921.523C927.527 632.808 932.087 631.82 935.203 629.844C938.319 627.792 939.877 624.562 939.877 620.154C939.877 615.822 938.509 612.63 935.773 610.578C933.037 608.526 928.667 607.5 922.663 607.5H900.661V632.808ZM900.661 604.422H920.839C926.159 604.422 930.301 603.396 933.265 601.344C936.229 599.292 937.711 596.252 937.711 592.224C937.711 588.196 936.229 585.156 933.265 583.104C930.301 581.052 926.159 580.026 920.839 580.026H900.661V604.422ZM987.834 636.342C982.286 636.342 977.308 635.088 972.9 632.58C968.568 629.996 965.11 626.424 962.526 621.864C960.018 617.304 958.764 612.136 958.764 606.36C958.764 600.508 960.018 595.34 962.526 590.856C965.11 586.372 968.568 582.838 972.9 580.254C977.308 577.67 982.286 576.378 987.834 576.378C993.382 576.378 998.36 577.67 1002.77 580.254C1007.18 582.838 1010.63 586.372 1013.14 590.856C1015.65 595.34 1016.9 600.508 1016.9 606.36C1016.9 612.136 1015.65 617.304 1013.14 621.864C1010.63 626.424 1007.18 629.996 1002.77 632.58C998.36 635.088 993.382 636.342 987.834 636.342ZM987.834 632.922C992.698 632.922 997.03 631.82 1000.83 629.616C1004.71 627.336 1007.71 624.182 1009.84 620.154C1012.04 616.126 1013.14 611.528 1013.14 606.36C1013.14 601.116 1012.04 596.518 1009.84 592.566C1007.71 588.538 1004.71 585.422 1000.83 583.218C997.03 581.014 992.698 579.912 987.834 579.912C983.046 579.912 978.752 581.014 974.952 583.218C971.152 585.422 968.112 588.538 965.832 592.566C963.628 596.518 962.526 601.116 962.526 606.36C962.526 611.528 963.628 616.126 965.832 620.154C968.112 624.182 971.152 627.336 974.952 629.616C978.752 631.82 983.046 632.922 987.834 632.922ZM1032.45 636.342C1031.46 636.342 1030.59 636 1029.83 635.316C1029.07 634.556 1028.69 633.644 1028.69 632.58C1028.69 631.516 1029.07 630.642 1029.83 629.958C1030.59 629.198 1031.46 628.818 1032.45 628.818C1033.51 628.818 1034.39 629.198 1035.07 629.958C1035.83 630.642 1036.21 631.516 1036.21 632.58C1036.21 633.644 1035.83 634.556 1035.07 635.316C1034.39 636 1033.51 636.342 1032.45 636.342ZM1087.21 636V556.2H1114.91C1121.52 556.2 1127.19 557.264 1131.9 559.392C1136.69 561.52 1140.33 564.56 1142.84 568.512C1145.35 572.388 1146.6 577.1 1146.6 582.648C1146.6 588.196 1145.35 592.946 1142.84 596.898C1140.33 600.85 1136.69 603.89 1131.9 606.018C1127.19 608.146 1121.52 609.21 1114.91 609.21H1089.38L1091.09 607.386V636H1087.21ZM1091.09 607.386L1089.38 605.676H1115.14C1124.11 605.676 1130.95 603.662 1135.66 599.634C1140.45 595.606 1142.84 589.944 1142.84 582.648C1142.84 575.352 1140.45 569.728 1135.66 565.776C1130.95 561.748 1124.11 559.734 1115.14 559.734H1089.38L1091.09 557.91V607.386ZM1187.58 636.342C1181.73 636.342 1176.56 635.088 1172.08 632.58C1167.59 629.996 1164.06 626.424 1161.47 621.864C1158.89 617.304 1157.6 612.136 1157.6 606.36C1157.6 600.508 1158.78 595.34 1161.13 590.856C1163.56 586.372 1166.87 582.838 1171.05 580.254C1175.31 577.67 1180.09 576.378 1185.41 576.378C1190.66 576.378 1195.37 577.632 1199.55 580.14C1203.81 582.648 1207.11 586.144 1209.47 590.628C1211.9 595.036 1213.12 600.128 1213.12 605.904C1213.12 606.056 1213.12 606.246 1213.12 606.474C1213.12 606.626 1213.12 606.778 1213.12 606.93H1160.11V603.852H1211.06L1209.58 605.676C1209.58 600.736 1208.52 596.328 1206.39 592.452C1204.34 588.5 1201.49 585.422 1197.84 583.218C1194.19 580.938 1190.05 579.798 1185.41 579.798C1180.78 579.798 1176.64 580.938 1172.99 583.218C1169.34 585.422 1166.45 588.5 1164.32 592.452C1162.27 596.328 1161.25 600.774 1161.25 605.79V606.474C1161.25 611.642 1162.39 616.24 1164.67 620.268C1166.95 624.22 1170.06 627.336 1174.01 629.616C1177.97 631.82 1182.49 632.922 1187.58 632.922C1191.46 632.922 1195.1 632.2 1198.52 630.756C1202.02 629.312 1204.91 627.108 1207.19 624.144L1209.58 626.652C1206.92 629.844 1203.65 632.276 1199.78 633.948C1195.98 635.544 1191.91 636.342 1187.58 636.342ZM1243.78 636.456C1239.83 636.456 1235.8 635.81 1231.7 634.518C1227.6 633.15 1223.99 631.06 1220.87 628.248L1222.69 625.626C1225.51 628.286 1228.81 630.224 1232.61 631.44C1236.49 632.656 1240.33 633.226 1244.13 633.15C1248.15 633.074 1251.69 632.428 1254.73 631.212C1257.77 629.92 1260.12 628.21 1261.8 626.082C1263.54 623.954 1264.42 621.56 1264.42 618.9C1264.42 615.1 1262.67 612.136 1259.17 610.008C1255.75 607.88 1251.08 606.816 1245.15 606.816H1236.15V603.624H1245.15C1248.5 603.624 1251.5 603.206 1254.16 602.37C1256.82 601.458 1258.91 600.128 1260.43 598.38C1261.95 596.556 1262.71 594.428 1262.71 591.996C1262.71 589.336 1261.8 587.094 1259.97 585.27C1258.22 583.446 1255.87 582.078 1252.9 581.166C1250.02 580.178 1246.82 579.722 1243.33 579.798C1240.29 579.874 1237.21 580.33 1234.09 581.166C1230.98 582.002 1227.94 583.294 1224.97 585.042L1223.61 581.964C1226.87 580.064 1230.18 578.658 1233.52 577.746C1236.87 576.834 1240.29 576.378 1243.78 576.378C1247.89 576.378 1251.65 576.986 1255.07 578.202C1258.57 579.342 1261.34 581.052 1263.39 583.332C1265.52 585.612 1266.58 588.348 1266.58 591.54C1266.58 594.504 1265.67 597.088 1263.85 599.292C1262.02 601.42 1259.59 603.054 1256.55 604.194C1253.51 605.334 1250.09 605.904 1246.29 605.904L1246.75 604.422C1253.59 604.422 1258.87 605.752 1262.59 608.412C1266.39 611.072 1268.29 614.644 1268.29 619.128C1268.29 622.7 1267.15 625.778 1264.87 628.362C1262.59 630.946 1259.59 632.96 1255.87 634.404C1252.22 635.772 1248.19 636.456 1243.78 636.456ZM1287.28 658.458C1284.62 658.458 1282.15 658.002 1279.87 657.09C1277.59 656.254 1275.65 654.962 1274.06 653.214L1276.22 650.25C1277.82 651.922 1279.49 653.138 1281.24 653.898C1282.99 654.734 1285 655.152 1287.28 655.152C1290.17 655.152 1292.71 654.354 1294.92 652.758C1297.12 651.162 1299.17 648.236 1301.07 643.98L1305.41 634.632L1305.98 633.72L1331.74 576.834H1335.73L1304.72 644.892C1303.2 648.236 1301.53 650.896 1299.71 652.872C1297.96 654.924 1296.06 656.368 1294.01 657.204C1291.95 658.04 1289.71 658.458 1287.28 658.458ZM1305.52 637.368L1277.93 576.834H1282.04L1307.69 633.492L1305.52 637.368ZM1336.36 635.772L1336.81 632.466C1337.27 632.542 1337.76 632.656 1338.29 632.808C1338.83 632.884 1339.28 632.922 1339.66 632.922C1342.25 632.922 1344.3 631.934 1345.82 629.958C1347.41 627.906 1348.63 625.17 1349.47 621.75C1350.3 618.254 1350.91 614.34 1351.29 610.008C1351.75 605.676 1352.05 601.192 1352.2 596.556L1353.23 576.834H1393.36V636H1389.59V578.886L1390.73 580.254H1355.62L1356.76 578.886L1355.85 597.126C1355.55 602.218 1355.13 607.158 1354.6 611.946C1354.06 616.658 1353.27 620.876 1352.2 624.6C1351.21 628.248 1349.77 631.136 1347.87 633.264C1346.05 635.392 1343.61 636.456 1340.57 636.456C1339.97 636.456 1339.28 636.38 1338.52 636.228C1337.84 636.076 1337.12 635.924 1336.36 635.772ZM1441.48 598.836C1448.78 598.912 1454.33 600.508 1458.13 603.624C1461.93 606.74 1463.83 611.262 1463.83 617.19C1463.83 623.422 1461.81 628.172 1457.78 631.44C1453.83 634.708 1448.02 636.304 1440.34 636.228L1419.14 636V576.834H1422.9V598.608L1441.48 598.836ZM1440.34 633.036C1446.88 633.112 1451.78 631.82 1455.05 629.16C1458.39 626.5 1460.06 622.548 1460.06 617.304C1460.06 612.136 1458.43 608.298 1455.16 605.79C1451.89 603.282 1446.95 601.99 1440.34 601.914L1422.9 601.686V632.922L1440.34 633.036ZM1485.51 636V579L1486.65 580.254H1461.8V576.834H1512.87V580.254H1488.02L1489.28 579V636H1485.51ZM1562.85 636V622.206L1562.74 620.154V597.696C1562.74 591.844 1561.18 587.398 1558.06 584.358C1554.95 581.318 1550.42 579.798 1544.5 579.798C1540.16 579.798 1536.21 580.558 1532.64 582.078C1529.07 583.522 1525.99 585.422 1523.41 587.778L1521.35 585.042C1524.17 582.382 1527.62 580.292 1531.73 578.772C1535.83 577.176 1540.13 576.378 1544.61 576.378C1551.68 576.378 1557.07 578.202 1560.8 581.85C1564.6 585.422 1566.5 590.704 1566.5 597.696V636H1562.85ZM1540.85 636.342C1536.36 636.342 1532.53 635.658 1529.33 634.29C1526.22 632.922 1523.82 630.984 1522.15 628.476C1520.48 625.892 1519.64 622.966 1519.64 619.698C1519.64 616.81 1520.33 614.15 1521.7 611.718C1523.06 609.21 1525.31 607.234 1528.42 605.79C1531.61 604.27 1535.87 603.51 1541.19 603.51H1564.1V606.588H1541.19C1534.73 606.588 1530.13 607.804 1527.4 610.236C1524.74 612.668 1523.41 615.746 1523.41 619.47C1523.41 623.65 1524.96 626.994 1528.08 629.502C1531.2 631.934 1535.53 633.15 1541.08 633.15C1546.55 633.15 1551.07 631.934 1554.64 629.502C1558.21 626.994 1560.91 623.46 1562.74 618.9L1563.99 621.408C1562.47 625.892 1559.73 629.502 1555.78 632.238C1551.83 634.974 1546.85 636.342 1540.85 636.342ZM1601.18 636V579L1602.32 580.254H1577.47V576.834H1628.54V580.254H1603.69L1604.95 579V636H1601.18ZM1634.4 636.342C1633.41 636.342 1632.54 636 1631.78 635.316C1631.02 634.556 1630.64 633.644 1630.64 632.58C1630.64 631.516 1631.02 630.642 1631.78 629.958C1632.54 629.198 1633.41 628.818 1634.4 628.818C1635.46 628.818 1636.34 629.198 1637.02 629.958C1637.78 630.642 1638.16 631.516 1638.16 632.58C1638.16 633.644 1637.78 634.556 1637.02 635.316C1636.34 636 1635.46 636.342 1634.4 636.342Z" fill="white"/>
</g>
<defs>
<filter id="filter0_d_1058_2" x="96" y="98" width="1559.05" height="379.002" filterUnits="userSpaceOnUse" color-interpolation-filters="sRGB">
<feFlood flood-opacity="0" result="BackgroundImageFix"/>
<feColorMatrix in="SourceAlpha" type="matrix" values="0 0 0 0 0 0 0 0 0 0 0 0 0 0 0 0 0 0 127 0" result="hardAlpha"/>
<feOffset dy="2"/>
<feGaussianBlur stdDeviation="2"/>
<feComposite in2="hardAlpha" operator="out"/>
<feColorMatrix type="matrix" values="0 0 0 0 1 0 0 0 0 1 0 0 0 0 1 0 0 0 0.25 0"/>
<feBlend mode="normal" in2="BackgroundImageFix" result="effect1_dropShadow_1058_2"/>
<feBlend mode="normal" in="SourceGraphic" in2="effect1_dropShadow_1058_2" result="shape"/>
</filter>
<filter id="filter1_d_1058_2" x="109.246" y="553.744" width="1532.92" height="110.714" filterUnits="userSpaceOnUse" color-interpolation-filters="sRGB">
<feFlood flood-opacity="0" result="BackgroundImageFix"/>
<feColorMatrix in="SourceAlpha" type="matrix" values="0 0 0 0 0 0 0 0 0 0 0 0 0 0 0 0 0 0 127 0" result="hardAlpha"/>
<feOffset dy="2"/>
<feGaussianBlur stdDeviation="2"/>
<feComposite in2="hardAlpha" operator="out"/>
<feColorMatrix type="matrix" values="0 0 0 0 1 0 0 0 0 1 0 0 0 0 1 0 0 0 0.25 0"/>
<feBlend mode="normal" in2="BackgroundImageFix" result="effect1_dropShadow_1058_2"/>
<feBlend mode="normal" in="SourceGraphic" in2="effect1_dropShadow_1058_2" result="shape"/>
</filter>
</defs>
</svg>
