<svg width="512" height="512" viewBox="0 0 512 512" fill="none" xmlns="http://www.w3.org/2000/svg">
<rect width="512" height="512" rx="32" fill="black"/>
<path d="M387.586 57.0149C402.389 56.995 417.191 56.995 432 57.0149C431.994 60.5434 431.994 64.0719 432 67.6004C426.028 67.6136 420.068 67.6203 414.102 67.6335C414.102 154.513 414.102 241.385 414.102 328.264C420.068 328.271 426.034 328.277 432 328.291C431.987 332.038 431.987 335.792 432 339.546C417.178 339.566 402.356 339.559 387.533 339.546C387.606 335.858 387.686 332.177 387.772 328.496C393.89 328.324 400.016 328.271 406.147 328.237C406.048 241.438 406.353 154.639 405.988 67.8392C399.856 67.6733 393.718 67.6203 387.586 67.5805C387.586 64.0586 387.58 60.5368 387.586 57.0149Z" fill="white"/>
<path d="M80.0083 88.1814C137.23 88.1814 194.458 88.1814 251.686 88.1814C251.712 101.665 251.706 115.149 251.686 128.633C210.811 128.653 169.937 128.626 129.063 128.646C129.05 143.675 129.043 158.705 129.063 173.74C150.044 173.866 171.031 173.502 192.018 173.9C207.437 174.603 223.426 176.705 237.095 184.392C246.071 189.327 254.013 196.543 258.905 205.629C265.335 216.553 266.641 229.606 266.773 242.035C266.389 255.93 262.305 270.064 253.449 280.968C246.688 289.716 237.394 296.322 227.205 300.487C212.807 306.622 196.97 308.586 181.425 308.42C147.617 308.334 113.809 308.406 80.0017 308.38C80.0017 234.978 79.995 161.583 80.0083 88.1814ZM129.056 211.546C129.05 231.224 129.05 250.896 129.063 270.568C145.861 270.482 162.658 270.747 179.45 270.528C190.049 270.349 201.365 268.187 209.439 260.798C214.007 255.725 216.824 248.933 216.638 242.055C217.01 234.322 215.1 225.706 209.028 220.42C201.604 214.026 191.448 212.288 181.989 211.738C164.349 211.241 146.703 211.678 129.056 211.546Z" fill="white"/>
<path d="M279.54 88.1819C310.252 88.1753 340.964 88.1753 371.676 88.1819C371.676 161.584 371.683 234.979 371.669 308.381C355.104 308.394 338.531 308.381 321.965 308.381C321.945 248.682 321.972 188.996 321.952 129.303C307.812 129.33 293.68 129.277 279.54 129.303C279.513 115.594 279.52 101.891 279.54 88.1819Z" fill="white"/>
<path d="M84.5498 455.186V409.21H121.659V417.683H95.1244V427.141H107.866C113.427 427.141 117.653 428.301 120.543 430.622C123.477 432.943 124.943 436.314 124.943 440.737C124.943 445.291 123.323 448.837 120.083 451.377C116.843 453.917 112.267 455.186 106.356 455.186H84.5498ZM95.1244 447.305H105.765C108.479 447.305 110.559 446.779 112.004 445.728C113.449 444.634 114.172 443.057 114.172 440.999C114.172 436.971 111.369 434.957 105.765 434.957H95.1244V447.305Z" fill="white"/>
<path d="M133.369 455.186V409.21H143.944V427.272H155.832V436.467H143.944V455.186H133.369ZM173.96 455.975C170.457 455.975 167.216 455.383 164.239 454.201C161.305 453.019 158.744 451.377 156.554 449.275C154.365 447.13 152.657 444.612 151.431 441.722C150.249 438.788 149.658 435.614 149.658 432.198C149.658 428.739 150.249 425.564 151.431 422.674C152.657 419.785 154.365 417.289 156.554 415.187C158.744 413.041 161.305 411.377 164.239 410.195C167.216 409.013 170.457 408.422 173.96 408.422C177.419 408.422 180.637 409.013 183.615 410.195C186.592 411.377 189.154 413.041 191.299 415.187C193.489 417.289 195.196 419.806 196.422 422.74C197.648 425.63 198.261 428.783 198.261 432.198C198.261 435.614 197.648 438.788 196.422 441.722C195.196 444.612 193.489 447.13 191.299 449.275C189.154 451.377 186.592 453.019 183.615 454.201C180.637 455.383 177.419 455.975 173.96 455.975ZM173.96 446.911C175.886 446.911 177.66 446.56 179.28 445.86C180.9 445.159 182.323 444.174 183.549 442.904C184.775 441.591 185.738 440.036 186.439 438.241C187.14 436.446 187.49 434.431 187.49 432.198C187.49 429.965 187.14 427.951 186.439 426.156C185.738 424.36 184.775 422.828 183.549 421.558C182.323 420.244 180.9 419.237 179.28 418.537C177.66 417.836 175.886 417.486 173.96 417.486C172.077 417.486 170.303 417.836 168.64 418.537C167.019 419.237 165.596 420.244 164.37 421.558C163.144 422.828 162.181 424.36 161.48 426.156C160.78 427.951 160.429 429.965 160.429 432.198C160.429 434.431 160.78 436.446 161.48 438.241C162.181 440.036 163.144 441.591 164.37 442.904C165.596 444.174 167.019 445.159 168.64 445.86C170.303 446.56 172.077 446.911 173.96 446.911Z" fill="white"/>
<path d="M206.883 455.186V409.21H226.784C230.9 409.21 234.447 409.889 237.424 411.246C240.402 412.56 242.7 414.464 244.321 416.96C245.941 419.456 246.751 422.434 246.751 425.893C246.751 429.308 245.941 432.264 244.321 434.76C242.7 437.256 240.402 439.182 237.424 440.54C234.447 441.853 230.9 442.51 226.784 442.51H212.794L217.523 437.715V455.186H206.883ZM217.523 438.898L212.794 433.84H226.193C229.477 433.84 231.929 433.14 233.549 431.738C235.169 430.337 235.979 428.389 235.979 425.893C235.979 423.353 235.169 421.383 233.549 419.982C231.929 418.58 229.477 417.88 226.193 417.88H212.794L217.523 412.822V438.898Z" fill="white"/>
<path d="M276.743 455.975C273.108 455.975 269.737 455.383 266.628 454.201C263.563 453.019 260.892 451.355 258.615 449.209C256.382 447.064 254.63 444.546 253.36 441.656C252.134 438.766 251.521 435.614 251.521 432.198C251.521 428.783 252.134 425.63 253.36 422.74C254.63 419.85 256.404 417.332 258.681 415.187C260.957 413.041 263.628 411.377 266.694 410.195C269.759 409.013 273.086 408.422 276.677 408.422C280.311 408.422 283.639 409.013 286.66 410.195C289.726 411.377 292.375 413.041 294.608 415.187C296.885 417.332 298.658 419.85 299.928 422.74C301.198 425.586 301.833 428.739 301.833 432.198C301.833 435.614 301.198 438.788 299.928 441.722C298.658 444.612 296.885 447.13 294.608 449.275C292.375 451.377 289.726 453.019 286.66 454.201C283.639 455.383 280.333 455.975 276.743 455.975ZM276.677 446.911C278.735 446.911 280.618 446.56 282.326 445.86C284.077 445.159 285.61 444.152 286.923 442.838C288.237 441.525 289.244 439.97 289.944 438.175C290.689 436.38 291.061 434.388 291.061 432.198C291.061 430.009 290.689 428.016 289.944 426.221C289.244 424.426 288.237 422.872 286.923 421.558C285.653 420.244 284.143 419.237 282.391 418.537C280.64 417.836 278.735 417.486 276.677 417.486C274.619 417.486 272.714 417.836 270.963 418.537C269.255 419.237 267.744 420.244 266.431 421.558C265.117 422.872 264.088 424.426 263.344 426.221C262.643 428.016 262.293 430.009 262.293 432.198C262.293 434.344 262.643 436.336 263.344 438.175C264.088 439.97 265.095 441.525 266.365 442.838C267.679 444.152 269.211 445.159 270.963 445.86C272.714 446.56 274.619 446.911 276.677 446.911Z" fill="white"/>
<path d="M329.024 455.186V409.21H337.826L364.952 442.313H360.683V409.21H371.191V455.186H362.456L335.264 422.083H339.533V455.186H329.024ZM377.3 440.934V434.694H399.5V440.934H377.3ZM388.4 430.359C385.991 430.359 383.846 429.899 381.963 428.98C380.124 428.06 378.657 426.769 377.562 425.105C376.512 423.441 375.986 421.558 375.986 419.456C375.986 417.354 376.512 415.493 377.562 413.873C378.657 412.253 380.124 410.983 381.963 410.064C383.846 409.144 385.991 408.684 388.4 408.684C390.852 408.684 392.997 409.144 394.836 410.064C396.719 410.983 398.186 412.253 399.237 413.873C400.288 415.493 400.813 417.376 400.813 419.522C400.813 421.58 400.266 423.441 399.171 425.105C398.121 426.725 396.676 428.016 394.836 428.98C392.997 429.899 390.852 430.359 388.4 430.359ZM388.4 424.908C390.02 424.908 391.334 424.426 392.341 423.463C393.348 422.456 393.851 421.12 393.851 419.456C393.851 417.792 393.348 416.5 392.341 415.581C391.334 414.618 390.02 414.136 388.4 414.136C386.78 414.136 385.444 414.618 384.393 415.581C383.386 416.5 382.883 417.814 382.883 419.522C382.883 421.142 383.386 422.456 384.393 423.463C385.444 424.426 386.78 424.908 388.4 424.908Z" fill="white"/>
<path d="M415.016 455.186V413.151L419.613 417.748H405.821V409.21H425.656V455.186H415.016Z" fill="white"/>
<path d="M111.236 391.431L106.653 379.563H92.3243L87.6929 391.431H84.8466L98.403 356.889H100.912L114.13 391.431H111.236ZM101.153 364.607C101.056 364.286 100.912 363.852 100.719 363.305C100.526 362.758 100.333 362.179 100.14 361.568C99.9467 360.957 99.7538 360.41 99.5608 359.928C99.4 360.475 99.2231 361.037 99.0301 361.616C98.8693 362.195 98.6924 362.742 98.4994 363.257C98.3386 363.771 98.1778 364.238 98.017 364.656L93.2892 377.054H105.784L101.153 364.607Z" fill="white"/>
<path d="M148.306 356.985V359.494H132.144V391.431H129.346V356.985H148.306Z" fill="white"/>
<path d="M182.986 391.431H164.075V356.985H182.986V359.494H166.873V372.133H182.069V374.594H166.873V388.922H182.986V391.431Z" fill="white"/>
<path d="M226.296 391.431H223.498V374.642H203.863V391.431H201.064V356.985H203.863V372.133H223.498V356.985H226.296V391.431Z" fill="white"/>
<path d="M255.611 391.431H252.813V359.494H241.717V356.985H266.707V359.494H255.611V391.431Z" fill="white"/>
<path d="M295.882 359.011C293.759 359.011 291.846 359.381 290.141 360.121C288.469 360.828 287.053 361.858 285.896 363.208C284.738 364.527 283.853 366.119 283.242 367.985C282.631 369.818 282.326 371.86 282.326 374.111C282.326 377.199 282.808 379.901 283.773 382.216C284.738 384.5 286.185 386.269 288.115 387.523C290.077 388.777 292.505 389.405 295.399 389.405C297.072 389.405 298.616 389.276 300.031 389.019C301.446 388.761 302.749 388.44 303.939 388.054V390.466C302.781 390.916 301.478 391.27 300.031 391.527C298.616 391.785 296.959 391.913 295.062 391.913C291.62 391.913 288.726 391.173 286.378 389.694C284.062 388.215 282.309 386.14 281.119 383.471C279.962 380.801 279.383 377.681 279.383 374.111C279.383 371.571 279.753 369.223 280.492 367.068C281.232 364.913 282.309 363.048 283.725 361.472C285.14 359.896 286.86 358.674 288.887 357.805C290.945 356.937 293.293 356.503 295.93 356.503C297.57 356.503 299.146 356.663 300.658 356.985C302.202 357.307 303.633 357.773 304.952 358.384L303.842 360.844C302.62 360.233 301.333 359.783 299.983 359.494C298.664 359.172 297.297 359.011 295.882 359.011Z" fill="white"/>
<path d="M330.957 391.431H328.159V359.494H317.063V356.985H342.053V359.494H330.957V391.431Z" fill="white"/>
<path d="M367.008 356.985C369.871 356.985 372.218 357.274 374.052 357.853C375.885 358.432 377.236 359.349 378.104 360.603C379.005 361.825 379.455 363.417 379.455 365.379C379.455 366.698 379.198 367.904 378.683 368.998C378.201 370.091 377.461 371.008 376.464 371.747C375.467 372.455 374.245 372.937 372.797 373.195V373.34C374.47 373.629 375.869 374.111 376.994 374.787C378.152 375.462 379.021 376.379 379.6 377.537C380.179 378.662 380.468 380.029 380.468 381.637C380.468 383.857 379.953 385.706 378.924 387.185C377.927 388.633 376.512 389.71 374.679 390.418C372.878 391.093 370.771 391.431 368.359 391.431H357.504V356.985H367.008ZM367.683 372.182C370.868 372.182 373.151 371.635 374.534 370.541C375.917 369.448 376.609 367.824 376.609 365.669C376.609 363.45 375.853 361.858 374.341 360.893C372.829 359.928 370.401 359.445 367.056 359.445H360.302V372.182H367.683ZM360.302 374.594V389.019H368.166C371.318 389.019 373.666 388.375 375.209 387.089C376.753 385.802 377.525 383.937 377.525 381.493C377.525 379.885 377.171 378.582 376.464 377.585C375.756 376.556 374.679 375.8 373.231 375.318C371.784 374.835 369.951 374.594 367.732 374.594H360.302Z" fill="white"/>
<path d="M427.45 374.16C427.45 376.797 427.113 379.193 426.437 381.348C425.794 383.503 424.829 385.384 423.543 386.992C422.256 388.568 420.632 389.791 418.67 390.659C416.74 391.495 414.489 391.913 411.916 391.913C409.311 391.913 407.043 391.479 405.114 390.611C403.184 389.742 401.576 388.52 400.289 386.944C399.003 385.368 398.038 383.503 397.395 381.348C396.751 379.161 396.43 376.749 396.43 374.111C396.43 370.606 397.009 367.534 398.167 364.897C399.357 362.26 401.109 360.201 403.425 358.722C405.773 357.21 408.667 356.454 412.109 356.454C415.422 356.454 418.204 357.178 420.455 358.625C422.738 360.04 424.475 362.067 425.665 364.704C426.855 367.341 427.45 370.493 427.45 374.16ZM399.373 374.111C399.373 377.199 399.823 379.885 400.723 382.168C401.624 384.452 403.007 386.237 404.872 387.523C406.738 388.81 409.102 389.453 411.964 389.453C414.859 389.453 417.223 388.826 419.056 387.571C420.921 386.285 422.288 384.5 423.157 382.216C424.057 379.933 424.507 377.247 424.507 374.16C424.507 369.367 423.462 365.637 421.372 362.967C419.313 360.298 416.226 358.963 412.109 358.963C409.214 358.963 406.818 359.59 404.921 360.844C403.055 362.099 401.656 363.868 400.723 366.151C399.823 368.435 399.373 371.088 399.373 374.111Z" fill="white"/>
</svg>
